<svg width="16" height="17" viewBox="0 0 16 17" fill="none" xmlns="http://www.w3.org/2000/svg">
<path fill-rule="evenodd" clip-rule="evenodd" d="M10.9227 3.63397C11.401 3.91012 11.5648 4.52171 11.2887 5L9.84531 7.5H13C13.5523 7.5 14 7.94772 14 8.5C14 9.05229 13.5523 9.5 13 9.5H9.61878L11.2887 12.3923C11.5648 12.8706 11.4009 13.4822 10.9226 13.7583C10.4443 14.0345 9.83275 13.8706 9.5566 13.3923L8 10.6962L6.44339 13.3923C6.16725 13.8706 5.55566 14.0345 5.07737 13.7583C4.59907 13.4822 4.4352 12.8706 4.71134 12.3923L6.38121 9.5H3C2.44772 9.5 2 9.05229 2 8.5C2 7.94772 2.44772 7.5 3 7.5H6.15468L4.7113 5C4.43516 4.52171 4.59904 3.91012 5.07733 3.63397C5.55562 3.35783 6.16721 3.52171 6.44335 4L8 6.69618L9.55664 4C9.83278 3.52171 10.4444 3.35783 10.9227 3.63397Z" fill="#377EBC"/>
</svg>
